<svg width="10" height="7" viewBox="0 0 10 7" fill="none" xmlns="http://www.w3.org/2000/svg">
<path d="M0.45 1.03333C0.575 0.908325 0.723 0.845825 0.894 0.845825C1.065 0.845825 1.21283 0.908325 1.3375 1.03333L5 4.69583L8.675 1.02083C8.79167 0.904158 8.9375 0.845825 9.1125 0.845825C9.2875 0.845825 9.4375 0.908325 9.5625 1.03333C9.6875 1.15833 9.75 1.30633 9.75 1.47733C9.75 1.64833 9.6875 1.79616 9.5625 1.92083L5.35 6.12083C5.3 6.17083 5.24583 6.20633 5.1875 6.22733C5.12917 6.24833 5.06667 6.25866 5 6.25833C4.93333 6.25833 4.87083 6.24783 4.8125 6.22683C4.75417 6.20583 4.7 6.17049 4.65 6.12083L0.4375 1.90832C0.320833 1.79166 0.2625 1.64783 0.2625 1.47682C0.2625 1.30582 0.325 1.15799 0.45 1.03333Z" fill="black"/>
</svg>
